<svg xmlns="http://www.w3.org/2000/svg" width="98" height="45" viewBox="0 0 98 45">
  <defs>
    <style>
      .cls-1 {
        font-size: 24px;
        font-family: Merriweather;
        font-weight: 800;
        font-style: italic;
      }

      .cls-1, .cls-2 {
        fill: #fff;
      }

      .cls-2 {
        fill-rule: evenodd;
      }
    </style>
  </defs>
  <g id="Logo">
    <text id="take" class="cls-1" transform="translate(50.088 26.552) scale(0.873 0.867)">take</text>
    <path class="cls-2" d="M704.5,412A20.5,20.5,0,1,0,725,432.5,20.525,20.525,0,0,0,704.5,412Zm0,37.835A17.334,17.334,0,1,1,721.834,432.5,17.354,17.354,0,0,1,704.5,449.834Zm0-25.223a7.889,7.889,0,1,0,7.889,7.889A7.9,7.9,0,0,0,704.5,424.611Zm0,12.611a4.722,4.722,0,1,1,4.722-4.722A4.728,4.728,0,0,1,704.5,437.222Z" transform="translate(-681 -410)"/>
  </g>
</svg>
